<?xml version="1.0" standalone="no"?>
<!DOCTYPE svg PUBLIC "-//W3C//DTD SVG 20010904//EN"
 "http://www.w3.org/TR/2001/REC-SVG-20010904/DTD/svg10.dtd">
<svg version="1.0" xmlns="http://www.w3.org/2000/svg"
 width="695.000000pt" height="359.000000pt" viewBox="0 0 695.000000 359.000000"
 preserveAspectRatio="xMidYMid meet">

<g transform="translate(0.000000,359.000000) scale(0.100000,-0.100000)"
fill="#000000" stroke="none">
<path d="M2326 3312 c-3 -6 0 -13 6 -16 7 -3 -8 -3 -34 0 -26 4 -60 3 -75 -1
-27 -8 -26 -9 17 -16 49 -10 65 -25 82 -80 9 -32 8 -39 -11 -58 -39 -39 -104
-25 -153 33 -22 25 -29 29 -40 18 -10 -10 -10 -17 0 -32 30 -49 -1 -93 -60
-84 -25 4 -43 1 -58 -9 -12 -9 -29 -13 -36 -10 -21 8 -17 -11 7 -33 12 -10 42
-46 68 -79 25 -33 53 -69 63 -80 9 -11 46 -58 83 -105 37 -47 79 -100 94 -118
14 -19 35 -38 46 -44 20 -9 20 -9 1 6 -11 9 -16 16 -12 16 4 0 -6 17 -22 38
-47 60 -65 102 -42 102 20 0 130 -176 130 -208 0 -20 43 -66 52 -56 9 9 73
-88 73 -111 0 -11 6 -20 13 -21 6 -1 17 -2 22 -3 16 -2 91 -123 86 -137 -3 -7
2 -18 10 -24 8 -7 14 -17 14 -22 0 -5 12 -26 26 -46 19 -26 20 -30 4 -12 -12
14 -27 32 -34 40 -6 8 -20 22 -30 30 -19 15 -19 14 -2 -15 9 -16 48 -75 87
-130 101 -143 159 -232 159 -244 0 -14 -73 -132 -114 -185 -55 -71 -85 -120
-79 -130 3 -5 2 -7 -3 -3 -5 3 -30 -24 -54 -60 -25 -35 -74 -106 -110 -156
-36 -51 -99 -141 -140 -202 -41 -60 -78 -114 -83 -120 -72 -95 -167 -241 -227
-350 -18 -33 -45 -78 -61 -99 l-28 -39 39 -46 c21 -25 67 -74 102 -108 l63
-62 70 -3 c39 -2 76 -6 83 -8 7 -3 29 17 50 45 20 27 30 45 22 40 -8 -5 -18
-10 -22 -10 -3 0 -10 -4 -15 -9 -5 -5 -3 -6 5 -2 18 11 15 -1 -8 -24 -34 -34
-31 -4 6 59 35 58 54 75 54 49 0 -9 3 -9 9 1 6 9 4 19 -4 28 -22 22 24 112 58
113 13 0 7 -32 -11 -58 -31 -44 -36 -56 -24 -48 7 4 23 27 38 51 14 24 35 47
47 51 21 6 66 51 67 66 1 18 -33 -2 -51 -31 -23 -38 -42 -33 -28 8 13 37 65
98 75 88 5 -4 3 -17 -4 -27 -15 -25 -15 -27 3 -27 14 0 392 501 548 726 16 23
32 41 36 41 4 0 45 -53 91 -118 92 -129 127 -174 133 -170 2 2 11 -3 20 -10
13 -11 15 -10 10 7 -3 12 -1 21 6 21 13 0 80 -103 96 -146 6 -18 17 -39 24
-48 16 -19 1 -22 -19 -3 -12 10 -12 9 -1 -5 7 -10 22 -18 33 -18 19 0 19 1 -2
35 -18 29 -19 35 -6 35 8 0 27 -16 42 -35 32 -42 67 -51 40 -10 -18 28 -21 61
-5 70 6 4 25 4 44 1 26 -5 39 -16 60 -51 25 -44 27 -45 73 -44 44 2 45 2 12 8
-28 5 -39 14 -57 46 -28 51 -28 59 0 90 18 21 27 25 55 19 26 -5 37 -16 58
-57 l25 -51 -21 -28 c-20 -28 -20 -28 -1 -28 11 0 25 9 31 21 9 16 17 19 38
14 15 -4 34 -13 43 -21 19 -17 39 -18 39 -3 0 17 -105 173 -139 207 -16 16
-42 53 -57 83 -16 30 -42 69 -58 87 -16 18 -41 52 -54 75 l-25 42 32 -30 c35
-32 141 -169 141 -181 0 -4 19 -32 42 -63 24 -31 43 -58 44 -61 4 -22 18 -38
30 -33 8 3 14 0 14 -7 0 -6 -4 -8 -10 -5 -5 3 -10 2 -10 -4 0 -5 6 -13 13 -18
14 -9 37 -13 37 -7 0 9 -222 329 -325 469 -61 83 -139 188 -173 235 -41 58
-68 86 -82 87 -32 3 -53 23 -40 38 8 9 5 14 -10 18 -11 3 -20 11 -20 17 0 9 3
10 14 1 11 -9 19 -4 40 24 15 19 24 40 21 45 -4 6 -1 9 7 8 8 -2 12 6 10 22
-1 16 1 20 6 12 9 -14 40 16 87 86 15 24 32 45 37 48 21 13 3 -21 -64 -121
-99 -146 -106 -158 -100 -172 7 -21 17 -15 18 10 1 13 26 59 56 103 173 252
280 400 453 624 100 130 175 229 175 234 0 2 -11 4 -25 4 -18 0 -29 -10 -46
-42 -22 -43 -87 -136 -95 -136 -7 0 15 38 26 45 5 3 7 11 4 18 -2 7 11 36 30
65 l35 52 -24 0 c-18 0 -29 -9 -41 -32 -24 -49 -44 -68 -70 -68 -30 0 -44 26
-34 62 7 23 6 28 -8 28 -10 0 -22 -8 -29 -19 -19 -30 -62 -36 -87 -12 -12 12
-30 21 -39 21 -16 0 -15 -3 4 -29 20 -27 21 -33 9 -62 -19 -45 -49 -69 -86
-69 -24 0 -34 5 -39 19 -6 20 29 111 43 111 5 0 17 7 28 15 18 13 16 14 -22
15 -35 0 -43 -4 -48 -23 -7 -31 -69 -101 -84 -96 -8 3 1 23 28 58 22 30 40 56
40 58 0 2 -13 3 -30 3 -27 0 -43 -17 -173 -192 -79 -106 -163 -222 -188 -258
-25 -36 -50 -65 -57 -65 -7 0 -40 39 -75 87 -268 373 -484 658 -499 658 -5 0
-7 4 -4 8 2 4 -14 28 -36 52 -23 25 -35 36 -27 25 14 -20 13 -20 -9 -1 -22 19
-31 43 -12 31 6 -4 7 1 3 11 -4 12 -8 14 -11 6 -3 -10 -7 -10 -18 -1 -17 14
-19 33 -2 23 7 -4 8 -3 4 5 -4 6 -11 9 -16 6 -5 -3 -18 8 -30 25 -12 17 -26
28 -31 24 -19 -11 -45 7 -57 40 -16 43 -7 72 17 54 10 -8 9 -4 -4 12 -11 14
-21 26 -21 28 -1 2 -5 -1 -8 -6z m135 -220 c17 -23 29 -46 25 -49 -20 -20
-103 84 -92 114 7 17 8 17 21 -2 8 -11 28 -39 46 -63z m-88 14 c38 -41 62 -95
49 -108 -20 -20 -89 8 -107 42 -19 37 -19 49 2 72 21 24 30 23 56 -6z m-101
-40 c26 -33 31 -65 13 -93 -15 -22 -22 -24 -53 -18 -48 8 -71 32 -79 80 -5 29
-2 41 11 51 25 18 87 6 108 -20z m-242 -34 c0 -10 5 -23 12 -30 7 -7 8 -12 2
-12 -6 0 -23 14 -39 30 l-29 30 27 0 c19 0 27 -5 27 -18z m95 -35 c29 -50 31
-67 10 -67 -14 0 -75 83 -75 102 0 4 9 8 20 8 12 0 28 -16 45 -43z m419 11
c-3 -4 11 -29 31 -54 19 -26 33 -49 30 -52 -7 -8 -67 52 -88 88 l-18 30 25 -2
c13 -1 22 -6 20 -10z m-62 -30 c9 -13 30 -38 47 -57 35 -38 30 -56 -13 -45
-43 11 -100 124 -62 124 7 0 20 -10 28 -22z m-83 -22 c15 -6 30 -28 40 -54 14
-40 14 -43 -4 -62 -18 -17 -25 -18 -63 -8 -74 19 -105 86 -60 128 22 20 37 20
87 -4z m-162 -51 c40 -28 55 -115 20 -115 -11 0 -77 107 -77 125 0 11 37 4 57
-10z m-95 -12 c25 -31 76 -117 83 -143 4 -14 -14 5 -39 43 -26 37 -52 67 -58
67 -6 0 -8 3 -5 6 3 4 2 15 -4 25 -12 24 3 25 23 2z m559 -105 c5 -10 6 -18 1
-18 -10 0 -82 94 -82 106 1 10 65 -61 81 -88z m-50 -10 c10 -19 2 -23 -17 -10
-15 9 -54 74 -54 87 1 11 55 -49 71 -77z m-126 60 c15 -7 35 -29 46 -50 18
-35 18 -40 4 -62 -14 -22 -19 -23 -55 -14 -31 8 -43 18 -59 50 -18 37 -18 43
-4 64 17 27 30 29 68 12z m-114 -64 c24 -22 35 -79 19 -99 -37 -45 -120 25
-120 101 0 25 2 26 41 21 22 -3 49 -13 60 -23z m368 -104 c21 -38 20 -49 -5
-32 -18 12 -64 83 -64 100 0 22 41 -18 69 -68z m-81 -2 c19 -40 20 -51 10 -68
-30 -47 -118 -3 -118 59 0 52 9 62 49 59 32 -3 38 -8 59 -50z m-171 1 c23 -8
35 -21 48 -55 17 -44 17 -46 -4 -68 -16 -17 -29 -22 -49 -18 -38 7 -49 17 -65
67 -13 38 -13 46 -1 64 17 24 28 25 71 10z m1357 -21 c8 -13 8 -23 -2 -38 -6
-11 -12 -26 -12 -34 0 -18 -47 -56 -68 -56 -18 0 -41 29 -42 52 0 31 33 87 54
91 36 8 59 3 70 -15z m-1463 -45 c6 -16 18 -40 26 -55 11 -23 12 -28 1 -28
-15 0 -68 76 -68 97 0 24 30 13 41 -14z m1549 22 c0 -12 -63 -105 -71 -105
-17 0 -9 27 21 68 26 36 50 54 50 37z m-1093 -82 c19 -30 33 -57 30 -59 -7 -8
-65 67 -76 98 -15 42 4 26 46 -39z m-66 7 c15 -25 28 -55 28 -68 1 -21 -2 -23
-31 -17 -42 9 -58 22 -74 61 -34 82 30 102 77 24z m660 -9 c-15 -28 -26 -39
-36 -35 -16 7 -14 12 24 63 32 42 39 25 12 -28z m127 36 c8 -9 6 -24 -8 -54
-21 -47 -24 -50 -65 -54 -38 -5 -44 19 -18 68 24 47 69 67 91 40z m-893 -64
c30 -45 32 -74 5 -98 -56 -51 -156 42 -119 111 10 19 21 24 50 24 33 0 42 -5
64 -37z m1037 20 c10 -9 18 -22 18 -29 0 -28 -34 -83 -54 -88 -78 -21 -119 10
-90 67 9 17 23 40 32 50 19 22 70 22 94 0z m-1200 -50 c28 -34 49 -86 38 -97
-7 -7 -16 -7 -28 0 -19 12 -62 82 -62 102 0 18 35 15 52 -5z m868 -9 c-22 -57
-82 -125 -97 -110 -5 4 95 136 103 136 2 0 -1 -12 -6 -26z m495 7 c-3 -6 -11
-9 -16 -6 -5 3 -6 -1 -3 -9 3 -8 -3 -19 -15 -26 -12 -6 -21 -17 -21 -26 0 -8
-7 -17 -15 -20 -8 -4 -15 -10 -15 -16 0 -5 5 -6 10 -3 15 9 12 -1 -3 -14 -25
-20 -16 21 17 77 18 30 36 50 43 47 7 -2 13 1 13 7 0 6 3 9 6 5 3 -3 3 -11 -1
-16z m-68 -5 c-12 -30 -58 -96 -67 -96 -25 0 4 92 32 103 25 10 40 7 35 -7z
m-870 -43 c18 -21 33 -45 32 -53 0 -15 -79 68 -79 83 0 15 15 6 47 -30z m482
-26 c-20 -40 -61 -78 -74 -66 -2 3 14 33 36 68 27 42 44 60 50 54 7 -7 3 -25
-12 -56z m-493 -54 c-10 -10 -56 20 -74 48 -34 54 -12 56 35 4 23 -27 41 -50
39 -52z m-117 59 c31 -44 35 -75 13 -102 -17 -21 -21 -22 -54 -11 -64 21 -90
73 -56 116 27 35 70 34 97 -3z m747 2 c16 -23 16 -28 1 -60 -25 -52 -96 -71
-121 -32 -21 34 43 116 91 118 7 0 20 -12 29 -26z m-911 -40 c9 -4 24 -23 34
-43 17 -32 17 -39 5 -64 -17 -32 -23 -33 -57 -6 -32 24 -62 83 -53 104 6 15
42 20 71 9z m1053 -15 c5 -26 -50 -109 -76 -116 -45 -11 -67 52 -34 94 32 41
104 55 110 22z m65 -16 c-5 -12 -3 -14 8 -8 8 5 11 5 6 -1 -5 -5 -11 -7 -13
-4 -2 3 -22 -23 -43 -56 -44 -70 -67 -91 -50 -47 6 15 21 42 35 60 13 17 24
35 24 39 0 6 30 33 37 34 1 0 -1 -7 -4 -17z m-700 -103 c19 -32 17 -36 -12
-20 -19 9 -81 99 -81 115 0 14 73 -61 93 -95z m227 84 c0 -20 -46 -84 -68 -93
-13 -7 -26 -10 -28 -9 -4 5 80 107 89 107 4 1 7 -2 7 -5z m-352 -27 c7 -6 22
-28 33 -49 16 -31 17 -41 7 -58 -15 -24 -27 -25 -73 -6 -23 10 -39 26 -49 51
-14 33 -14 39 1 61 13 20 21 24 42 19 14 -4 32 -12 39 -18z m482 -14 c0 -30
-33 -75 -65 -89 -46 -19 -50 -18 -63 10 -9 20 -7 30 11 58 37 54 117 69 117
21z m-625 -23 c6 0 20 -18 30 -40 14 -31 16 -47 8 -72 -8 -30 -13 -33 -44 -30
-44 3 -89 52 -89 97 0 41 18 58 54 51 16 -3 34 -6 41 -6z m764 -21 c13 -24 12
-29 -15 -70 -39 -58 -80 -65 -107 -19 -16 26 -17 36 -7 65 14 42 34 56 80 52
25 -1 38 -9 49 -28z m-914 -33 c11 -8 29 -31 40 -53 11 -21 26 -43 34 -49 8
-6 11 -16 7 -22 -4 -7 5 -28 20 -47 15 -20 25 -38 22 -40 -7 -8 -88 92 -88
108 0 8 -13 32 -28 53 -39 54 -44 64 -35 64 5 0 17 -6 28 -14z m475 -24 c0
-15 -2 -15 -10 -2 -13 20 -13 33 0 25 6 -3 10 -14 10 -23z m520 22 c0 -4 -14
-31 -31 -60 -28 -50 -49 -68 -49 -44 0 15 29 71 48 93 15 17 32 23 32 11z
m-374 -19 c8 -20 -1 -55 -21 -80 -15 -20 -16 -19 -45 15 -17 19 -30 37 -30 40
0 10 54 39 73 40 10 0 20 -7 23 -15z m-205 -5 c10 -6 19 -19 19 -28 0 -23 -28
-62 -44 -62 -20 0 -39 45 -32 74 7 28 25 33 57 16z m324 -18 c6 -4 18 -20 28
-35 18 -27 17 -28 -10 -70 -22 -32 -36 -43 -60 -45 -34 -3 -73 25 -73 53 0 34
34 83 64 93 40 13 39 13 51 4z m-434 -24 c26 -22 50 -68 43 -80 -43 -70 -101
-62 -143 19 -17 34 11 73 53 73 18 0 39 -6 47 -12z m160 -11 c-10 -9 -11 -8
-5 6 3 10 9 15 12 12 3 -3 0 -11 -7 -18z m47 -33 c-10 -10 -28 6 -28 24 0 15
1 15 17 -1 9 -9 14 -19 11 -23z m-353 -20 c40 -40 52 -94 22 -94 -12 0 -67 82
-67 100 0 15 27 12 45 -6z m333 -1 c2 -8 -5 -13 -17 -13 -12 0 -21 6 -21 16 0
18 31 15 38 -3z m379 3 c-14 -37 -59 -96 -72 -96 -21 0 -19 37 6 76 15 24 28
34 46 34 18 0 24 -4 20 -14z m-427 -42 c0 -15 -43 -75 -60 -84 -31 -17 -31
-12 1 40 17 28 37 50 45 50 8 0 14 -3 14 -6z m126 -16 c11 -13 28 -36 38 -51
18 -29 18 -29 -6 -22 -22 6 -88 72 -88 88 0 16 38 6 56 -15z m-428 -51 c9 1
11 0 5 -3 -7 -3 -13 -13 -13 -21 0 -24 -22 -2 -49 49 l-22 43 31 -35 c17 -19
39 -34 48 -33z m225 39 c-10 -13 -20 -22 -22 -20 -4 4 29 44 36 44 2 0 -4 -11
-14 -24z m151 -33 c25 -40 22 -54 -15 -73 -12 -7 -23 -3 -43 15 l-26 24 21 35
c12 20 25 36 30 36 5 0 20 -17 33 -37z m-224 -5 c0 -19 -32 -98 -40 -98 -4 0
-15 18 -25 40 -15 32 -15 42 -5 55 15 18 70 20 70 3z m350 -4 c0 -8 -4 -12
-10 -9 -5 3 -10 10 -10 16 0 5 5 9 10 9 6 0 10 -7 10 -16z m117 -1 c8 -20 -18
-68 -36 -68 -20 0 -55 51 -48 69 9 22 75 22 84 -1z m-445 -45 c-7 -7 -12 -8
-12 -2 0 14 12 26 19 19 2 -3 -1 -11 -7 -17z m-122 -29 c14 -22 33 -45 43 -50
17 -10 24 -39 8 -39 -11 0 -91 105 -91 120 0 21 16 9 40 -31z m225 12 c7 -23
-14 -61 -35 -62 -19 -2 -44 2 -49 7 -10 9 21 55 41 64 33 13 36 12 43 -9z
m243 -6 c-3 -3 -9 2 -12 12 -6 14 -5 15 5 6 7 -7 10 -15 7 -18z m-20 -12 c15
-21 15 -25 -1 -47 -18 -25 -64 -11 -82 24 -11 21 -11 30 -2 39 16 16 68 6 85
-16z m-354 -18 c-4 -8 -10 -15 -15 -15 -4 0 -6 7 -3 15 4 8 10 15 15 15 4 0 6
-7 3 -15z m245 -39 c27 -42 26 -47 -4 -80 -32 -35 -66 -34 -88 3 -21 36 -21
39 3 79 27 44 61 43 89 -2z m165 2 c4 -17 2 -28 -4 -28 -5 0 -10 14 -10 32 0
36 4 35 14 -4z m-413 -35 c-12 -20 -14 -14 -5 12 4 9 9 14 11 11 3 -2 0 -13
-6 -23z m385 -20 c-11 -12 -27 13 -20 32 7 17 8 17 17 -3 6 -12 7 -25 3 -29z
m-286 28 c0 -11 -25 -21 -51 -21 -19 0 -25 11 -12 23 10 10 63 8 63 -2z m244
-54 c13 -21 -21 -71 -53 -75 -28 -5 -29 35 0 72 23 29 36 30 53 3z m-216 -34
c2 -11 -4 -26 -12 -33 -13 -10 -20 -10 -40 3 -34 22 -40 56 -13 67 27 10 61
-9 65 -37z m-224 -33 c-20 -38 -33 -50 -45 -47 -10 3 -20 -2 -23 -10 -3 -8 -1
-11 4 -8 19 12 10 -12 -21 -56 -42 -60 -79 -87 -79 -59 0 8 50 86 75 117 24
29 58 71 82 102 37 46 41 23 7 -39z m106 50 c0 -5 -2 -10 -4 -10 -3 0 -8 5
-11 10 -3 6 -1 10 4 10 6 0 11 -4 11 -10z m380 0 c0 -5 -5 -10 -11 -10 -5 0
-7 5 -4 10 3 6 8 10 11 10 2 0 4 -4 4 -10z m130 -46 c32 -46 34 -68 5 -44 -13
11 -45 72 -45 86 0 12 13 -1 40 -42z m-100 29 c-1 -13 -49 -68 -54 -62 -7 6
34 69 45 69 5 0 9 -3 9 -7z m49 -49 c5 -20 7 -42 4 -50 -6 -17 -83 -20 -83 -3
0 18 53 98 62 93 4 -3 12 -21 17 -40z m-475 -4 c14 -22 26 -41 26 -44 0 -2
-16 -7 -36 -11 -51 -9 -60 5 -38 54 11 22 20 41 20 41 1 0 13 -18 28 -40z
m244 6 c8 -19 7 -30 -9 -55 -24 -39 -34 -37 -61 11 -18 31 -19 40 -8 52 20 25
65 20 78 -8z m-207 -3 c13 -16 12 -17 -3 -4 -17 13 -22 21 -14 21 2 0 10 -8
17 -17z m105 -59 c53 -65 31 -72 -26 -9 -28 31 -50 57 -50 59 0 2 9 2 20 -1
12 -3 37 -25 56 -49z m488 -35 c10 -18 14 -29 8 -25 -6 3 -24 30 -42 59 -22
37 -24 44 -8 25 13 -15 32 -42 42 -59z m-306 30 c-24 -43 -68 -92 -75 -85 -9
9 8 45 37 78 16 18 30 36 30 41 0 4 7 7 16 7 13 0 11 -7 -8 -41z m-405 -3 c10
-24 -32 -93 -66 -110 -18 -8 -33 -11 -35 -6 -4 11 77 130 88 130 4 0 10 -6 13
-14z m427 -25 c-6 -12 -15 -21 -21 -21 -5 0 -2 11 8 24 21 28 29 27 13 -3z
m208 -8 c32 -42 56 -83 47 -83 -3 0 -21 7 -41 15 -47 20 -83 105 -44 105 4 0
22 -17 38 -37z m92 -38 c5 3 12 0 16 -6 4 -8 3 -9 -4 -5 -7 4 -12 2 -12 -3 0
-25 -20 -8 -50 42 l-31 52 36 -43 c20 -23 41 -40 45 -37z m-542 30 c17 -38 14
-43 -8 -15 -21 27 -25 40 -12 40 5 0 14 -11 20 -25z m-43 -18 c17 -32 17 -35
0 -68 -22 -42 -31 -49 -73 -49 -23 0 -40 7 -53 23 -22 26 -23 40 -6 70 26 46
40 57 77 57 31 0 39 -5 55 -33z m387 21 c9 -7 25 -28 36 -47 l21 -34 -22 -28
c-11 -16 -27 -29 -34 -29 -58 0 -108 81 -77 127 16 25 51 30 76 11z m-234 -65
c-3 -15 -6 -14 -17 6 -11 19 -11 25 0 32 15 9 23 -9 17 -38z m-60 -52 c3 -25
-2 -33 -23 -43 -21 -10 -29 -9 -42 5 -15 15 -15 19 2 57 17 38 20 39 39 27 12
-8 22 -27 24 -46z m188 18 c22 -64 -24 -95 -65 -43 -28 35 -26 50 7 68 36 20
45 16 58 -25z m-566 -4 c0 -26 -47 -92 -69 -98 -30 -7 -26 7 16 63 38 52 53
61 53 35z m914 -39 c40 -60 48 -90 16 -61 -19 17 -70 97 -70 109 0 19 23 -1
54 -48z m-110 34 c24 -9 66 -74 66 -103 0 -56 -88 -58 -121 -3 -31 51 -21 116
17 116 7 0 24 -4 38 -10z m-663 -21 c8 -16 8 -32 -1 -65 -7 -25 -16 -46 -19
-48 -3 -2 -27 -7 -53 -11 -42 -6 -48 -5 -63 19 -16 24 -16 27 5 61 40 65 107
88 131 44z m296 -11 c-3 -7 -5 -2 -5 12 0 14 2 19 5 13 2 -7 2 -19 0 -25z
m-526 -6 c-11 -20 -41 -48 -41 -38 0 6 41 56 47 56 2 0 -1 -8 -6 -18z m766
-27 c7 -2 22 -23 33 -46 19 -36 20 -45 9 -65 -7 -13 -19 -24 -26 -24 -52 0
-124 90 -103 129 10 20 36 21 87 6z m-384 -8 c4 -11 -34 -103 -51 -118 -4 -4
-19 -11 -34 -14 -23 -6 -29 -2 -43 24 -15 29 -14 34 4 76 20 45 20 45 69 45
31 0 52 -5 55 -13z m71 -34 c-9 -16 -35 -46 -57 -68 l-39 -40 27 45 c32 52 64
90 78 90 5 0 1 -12 -9 -27z m204 -41 c33 -47 34 -59 7 -49 -15 6 -75 93 -75
109 0 17 37 -16 68 -60z m-688 33 c0 -16 -73 -115 -85 -115 -19 0 -19 14 0 30
8 7 15 17 15 22 0 18 41 68 56 68 8 0 14 -2 14 -5z m105 -25 c18 -20 18 -22
-3 -64 -18 -38 -26 -45 -61 -51 -22 -4 -45 -4 -51 0 -29 18 12 107 58 124 37
13 37 13 57 -9z m971 -5 c32 -22 58 -83 44 -100 -12 -15 -75 -10 -97 7 -16 12
-26 63 -18 88 8 24 41 26 71 5z m-816 -57 c14 -25 13 -31 -5 -64 -34 -64 -104
-84 -129 -36 -13 25 -12 32 4 67 13 28 28 43 52 51 45 17 60 14 78 -18z m674
18 c37 -16 44 -23 56 -67 7 -24 5 -34 -14 -55 -21 -25 -23 -26 -58 -11 -28 12
-39 25 -53 61 -17 44 -17 47 0 66 22 24 26 24 69 6z m-524 -63 c-44 -71 -70
-101 -70 -83 0 14 85 130 95 130 3 0 -9 -21 -25 -47z m326 -5 c46 -49 76 -97
69 -108 -5 -8 -12 -7 -22 2 -16 13 -93 123 -93 132 0 14 18 3 46 -26z m-426
-38 c-34 -52 -47 -59 -36 -17 6 27 54 82 63 73 3 -3 -9 -28 -27 -56z m495 52
c36 -26 67 -92 43 -92 -12 1 -78 81 -78 95 0 7 23 6 35 -3z m-956 -71 c-35
-55 -55 -68 -38 -24 14 37 62 99 66 86 2 -6 -11 -33 -28 -62z m108 44 c3 -9
-2 -35 -11 -60 -13 -33 -25 -46 -48 -54 -45 -16 -56 0 -32 44 22 41 61 85 75
85 5 0 12 -7 16 -15z m1257 -62 c20 -31 34 -58 32 -60 -1 -2 -17 0 -33 3 -24
5 -37 17 -57 54 -14 26 -23 50 -19 54 19 18 44 1 77 -51z m-1124 15 c25 -27
25 -39 0 -88 -19 -37 -23 -40 -64 -40 -39 0 -45 3 -56 29 -10 25 -8 35 9 69
19 37 32 45 78 51 7 0 21 -9 33 -21z m979 16 c25 -5 37 -16 55 -53 l24 -46
-23 -29 c-21 -27 -27 -28 -57 -20 -25 7 -39 21 -57 56 -24 44 -24 47 -8 72 19
29 20 29 66 20z m-829 -65 c0 -19 -22 -53 -58 -91 -39 -41 -56 -47 -66 -23
-11 30 30 112 59 118 40 8 65 7 65 -4z m706 3 c15 -9 54 -87 54 -106 0 -21
-17 -29 -39 -17 -19 11 -81 103 -81 121 0 12 50 13 66 2z m-658 -39 c-13 -32
-77 -123 -85 -123 -3 0 0 6 6 13 6 8 8 17 5 20 -6 6 25 56 59 95 27 29 29 28
15 -5z m-472 -37 c-16 -42 -51 -84 -61 -74 -3 3 11 33 32 67 41 69 54 73 29 7z
m-57 -10 c-18 -25 -36 -46 -41 -46 -4 0 8 23 28 50 20 28 39 49 41 46 3 -3
-10 -25 -28 -50z m1569 -8 c44 -61 48 -73 18 -62 -17 7 -83 124 -69 123 5 0
27 -27 51 -61z m-1379 10 c14 -24 13 -30 -4 -67 -13 -27 -30 -44 -49 -51 -40
-14 -39 -14 -59 20 -17 28 -17 31 4 72 12 24 27 46 33 51 22 14 60 2 75 -25z
m146 -58 c12 -39 -60 -130 -103 -130 -16 0 -35 58 -28 85 11 41 41 65 85 65
31 0 41 -4 46 -20z m-375 -26 c0 -3 -11 -25 -25 -48 -28 -48 -62 -82 -71 -73
-9 9 69 127 84 127 6 0 12 -3 12 -6z m423 -58 c-21 -33 -32 -43 -43 -36 -11 7
-6 18 25 56 46 56 58 44 18 -20z m35 20 c-13 -19 -24 -33 -26 -32 -5 5 33 66
41 66 4 0 -3 -15 -15 -34z m-360 -13 c5 -49 -22 -90 -65 -102 -29 -8 -41 -8
-51 3 -12 11 -10 20 8 55 28 56 57 83 83 79 17 -2 23 -11 25 -35z m132 -46
c14 -24 13 -29 -16 -69 -37 -54 -82 -64 -104 -24 -20 38 11 103 54 115 41 12
48 9 66 -22z m54 -72 c-20 -30 -41 -55 -46 -55 -5 0 -8 3 -6 8 35 71 53 93 86
101 1 1 -14 -24 -34 -54z m79 3 c-34 -52 -73 -97 -73 -83 0 22 88 140 97 131
3 -2 -8 -24 -24 -48z m-418 -20 c-12 -55 -38 -93 -68 -96 -34 -4 -34 6 4 73
21 38 37 55 51 55 17 0 19 -4 13 -32z m-121 -31 c-30 -54 -54 -76 -28 -26 24
48 46 80 51 76 2 -2 -8 -25 -23 -50z m258 16 c24 -22 23 -46 -6 -92 -38 -59
-104 -65 -121 -10 -10 30 29 107 57 112 43 8 51 7 70 -10z m96 -96 c-34 -57
-56 -79 -69 -71 -30 18 17 113 61 125 40 10 41 1 8 -54z m-383 -46 c-25 -45
-61 -78 -72 -67 -17 17 68 133 88 120 5 -3 -2 -26 -16 -53z m141 4 c10 -16 10
-27 -1 -59 -18 -50 -25 -57 -71 -63 -32 -4 -41 -1 -52 17 -11 18 -10 27 10 63
36 64 87 83 114 42z m142 -48 c4 -19 -33 -97 -52 -109 -21 -14 -55 -8 -66 12
-15 28 25 101 60 111 36 10 54 6 58 -14z m-388 -51 c0 -2 -7 -9 -15 -16 -13
-11 -14 -10 -9 4 5 14 24 23 24 12z m96 -21 c8 -21 -2 -58 -24 -85 l-19 -23
-22 24 c-32 34 -38 69 -16 86 25 18 74 17 81 -2z m152 -41 c32 -22 43 -55 31
-98 -11 -39 -25 -50 -83 -60 -32 -6 -42 -4 -63 16 -43 40 -46 54 -22 98 31 55
94 75 137 44z m86 -48 c-5 -13 -9 -14 -21 -4 -13 10 -13 13 4 19 23 8 25 6 17
-15z m-22 -48 c-7 -7 -12 -8 -12 -2 0 14 12 26 19 19 2 -3 -1 -11 -7 -17z"/>
<path d="M2365 3250 c-7 -11 25 -64 33 -55 3 3 -2 13 -11 23 -22 24 -22 38 1
21 15 -13 16 -12 3 4 -16 20 -18 20 -26 7z"/>
<path d="M983 2318 c-133 -222 -253 -425 -268 -453 -15 -27 -32 -55 -37 -62
-6 -7 9 -41 45 -100 30 -48 64 -104 75 -123 10 -19 108 -183 216 -363 108
-181 196 -332 196 -336 0 -4 8 -15 18 -24 17 -15 63 -17 459 -17 l441 0 36 57
35 58 -449 3 -449 2 -32 58 c-38 68 -154 263 -292 492 -55 91 -111 185 -125
210 -14 25 -29 52 -35 60 -6 11 5 37 42 97 28 46 51 85 51 88 0 3 31 56 68
117 37 62 122 204 188 315 l119 202 453 1 c355 0 452 3 451 13 0 6 -13 32 -28
57 l-27 45 -455 3 -456 2 -240 -402z"/>
<path d="M2350 2540 c0 -5 5 -10 11 -10 5 0 7 5 4 10 -3 6 -8 10 -11 10 -2 0
-4 -4 -4 -10z"/>
<path d="M4034 2205 c-131 -32 -243 -114 -295 -216 -85 -169 -18 -401 145
-503 104 -65 121 -69 359 -74 192 -3 221 -2 243 13 17 11 44 55 74 120 l49
103 169 -1 170 -2 32 -80 c61 -154 67 -160 146 -153 31 2 40 7 42 24 3 19 -49
145 -148 359 -15 33 -49 110 -76 170 -27 61 -62 137 -79 170 l-30 60 -63 3
-62 3 -29 -63 c-16 -35 -63 -139 -106 -233 -74 -164 -125 -276 -147 -322 -14
-29 -67 -38 -223 -38 -139 0 -214 22 -284 81 -57 50 -79 90 -87 164 -8 86 7
141 54 188 81 80 175 108 335 98 62 -4 130 -8 152 -9 l40 -2 3 47 c2 26 -1 56
-7 65 -20 37 -267 55 -377 28z m782 -280 c18 -44 41 -92 49 -108 9 -15 14 -31
11 -35 -6 -11 -206 -5 -206 5 1 20 95 223 103 220 4 -1 24 -38 43 -82z"/>
<path d="M1220 2181 c-12 -24 -14 -730 -1 -750 5 -8 26 -14 52 -14 65 0 69 11
69 190 0 95 4 153 10 153 6 0 103 1 218 1 l207 0 5 -167 5 -167 26 -9 c16 -5
37 -5 52 1 l27 11 0 379 0 380 -34 6 c-19 4 -43 2 -55 -4 -20 -11 -21 -19 -21
-161 0 -136 -2 -150 -17 -151 -22 -1 -240 -1 -345 0 l-78 1 0 135 c0 166 -7
185 -66 185 -33 0 -46 -5 -54 -19z"/>
<path d="M1957 2182 c-22 -24 -21 -55 1 -75 16 -15 48 -17 243 -17 253 0 272
4 277 59 2 20 -2 37 -10 42 -7 5 -121 9 -254 9 -221 0 -242 -2 -257 -18z"/>
<path d="M5197 2193 c-12 -12 -7 -58 9 -81 15 -21 21 -22 169 -22 125 0 165
-4 218 -20 116 -36 153 -116 84 -185 -45 -45 -90 -56 -240 -62 l-129 -5 2 28
c1 16 2 53 1 81 -1 47 -3 53 -26 59 -14 3 -41 3 -60 0 l-35 -7 2 -282 3 -282
55 0 55 0 5 140 5 140 41 3 c41 3 43 1 185 -137 154 -150 186 -169 259 -153
63 14 53 34 -91 172 l-132 128 56 12 c129 26 197 108 197 235 -1 125 -47 188
-167 225 -56 17 -93 20 -262 20 -109 0 -201 -3 -204 -7z"/>
<path d="M5887 2194 c-14 -14 -7 -61 13 -82 20 -21 29 -22 184 -22 123 0 174
-4 209 -16 82 -28 100 -85 44 -138 -43 -40 -105 -56 -222 -56 l-95 0 0 39 c0
64 -6 71 -64 71 -28 0 -57 -4 -64 -8 -9 -7 -12 -71 -10 -288 l3 -279 250 0
c272 0 270 0 354 63 96 72 95 247 -2 340 l-34 33 21 42 c13 26 22 67 24 107 4
86 -22 133 -93 169 -49 25 -56 26 -280 29 -127 2 -234 0 -238 -4z m466 -453
c46 -18 67 -47 67 -94 0 -85 -78 -117 -282 -117 l-118 0 0 117 0 116 154 -6
c84 -4 165 -11 179 -16z"/>
<path d="M1951 1993 c-5 -10 -8 -134 -7 -279 1 -206 4 -265 15 -278 12 -15 41
-16 270 -14 l256 3 3 44 c2 24 -2 49 -8 55 -7 7 -66 12 -158 13 -81 1 -168 2
-194 2 l-48 1 0 105 0 105 193 2 192 3 6 45 c3 25 4 51 2 57 -4 9 -56 13 -196
15 l-192 3 -7 50 c-8 59 -34 85 -84 85 -21 0 -37 -6 -43 -17z"/>
<path d="M4037 925 c10 -13 22 -25 26 -25 5 0 6 -4 2 -9 -3 -6 4 -15 16 -22
18 -9 16 -4 -11 35 -18 25 -37 46 -42 46 -5 0 -1 -11 9 -25z"/>
</g>
</svg>
